<?xml version="1.0" encoding="UTF-8" standalone="no"?>
<!-- Created with Inkscape (http://www.inkscape.org/) -->

<svg
   xmlns:dc="http://purl.org/dc/elements/1.1/"
   xmlns:cc="http://creativecommons.org/ns#"
   xmlns:rdf="http://www.w3.org/1999/02/22-rdf-syntax-ns#"
   xmlns:svg="http://www.w3.org/2000/svg"
   xmlns="http://www.w3.org/2000/svg"
   xmlns:sodipodi="http://sodipodi.sourceforge.net/DTD/sodipodi-0.dtd"
   xmlns:inkscape="http://www.inkscape.org/namespaces/inkscape"
   width="512"
   height="512"
   viewBox="0 0 135.46666 135.46667"
   version="1.1"
   id="svg4554"
   inkscape:export-filename="C:\Users\ed.boal\Desktop\peloton\icon.png"
   inkscape:export-xdpi="48.000004"
   inkscape:export-ydpi="48.000004"
   inkscape:version="0.92.3 (2405546, 2018-03-11)"
   sodipodi:docname="icon.svg">
  <defs
     id="defs4548" />
  <sodipodi:namedview
     id="base"
     pagecolor="#ffffff"
     bordercolor="#666666"
     borderopacity="1.0"
     inkscape:pageopacity="0.0"
     inkscape:pageshadow="2"
     inkscape:zoom="1.4"
     inkscape:cx="49.762111"
     inkscape:cy="268.09354"
     inkscape:document-units="mm"
     inkscape:current-layer="layer1"
     showgrid="false"
     units="px"
     inkscape:window-width="2560"
     inkscape:window-height="1017"
     inkscape:window-x="1912"
     inkscape:window-y="32"
     inkscape:window-maximized="1" />
  <metadata
     id="metadata4551">
    <rdf:RDF>
      <cc:Work
         rdf:about="">
        <dc:format>image/svg+xml</dc:format>
        <dc:type
           rdf:resource="http://purl.org/dc/dcmitype/StillImage" />
        <dc:title></dc:title>
      </cc:Work>
    </rdf:RDF>
  </metadata>
  <g
     inkscape:label="Layer 1"
     inkscape:groupmode="layer"
     id="layer1"
     transform="translate(0,-161.53332)">
    <path
       style="fill:#df1c2f;fill-opacity:1;stroke:#d40000;stroke-width:0.25828925"
       d="m 31.52468,295.67403 c -1.995356,-0.65936 -3.056971,-1.35991 -4.573401,-3.01914 -1.816677,-1.98769 -2.46866,-3.75824 -2.468307,-6.70306 2.33e-4,-1.8631 0.116521,-2.5809 0.585584,-3.61599 1.171861,-2.58542 33.775901,-58.86236 34.733288,-59.95212 0.628657,-0.7157 1.699174,-1.47445 2.956929,-2.09604 1.850452,-0.91449 2.115013,-0.97414 4.30948,-0.96308 3.271998,0.0111 4.882097,0.67813 7.139971,2.93553 2.261044,2.26104 2.925551,3.87499 2.934111,7.1265 0.0056,2.08213 -0.07952,2.50634 -0.815421,4.06573 -1.020849,2.16363 -2.940726,4.13023 -4.922619,5.04273 -1.159194,0.53345 -1.991269,0.70464 -3.824778,0.78747 -2.065157,0.0884 -2.538859,0.0221 -3.990954,-0.55995 -0.906207,-0.36558 -1.662804,-0.64059 -1.681293,-0.60966 -0.937904,1.55066 -10.193849,17.77115 -10.193849,17.86414 0,0.25072 3.466724,1.87604 5.424065,2.5429 7.689372,2.61978 16.065892,2.12498 23.375176,-1.38067 10.652982,-5.10944 17.428578,-15.86332 17.433488,-27.66941 0.0021,-5.01655 -0.959996,-9.16225 -3.196308,-13.77257 -3.919073,-8.07965 -10.898575,-13.82217 -19.7904,-16.28302 -3.027736,-0.83827 -8.992808,-1.14785 -12.434924,-0.64611 -8.019439,1.16919 -16.046774,6.12753 -20.523116,12.67664 -0.724745,1.06027 -5.297538,8.84349 -10.161908,17.29601 -4.864359,8.45252 -8.93267,15.46162 -9.040696,15.57571 -0.239889,0.25402 -1.400529,-3.84881 -1.970474,-6.96514 -0.64942,-3.55106 -0.779083,-10.70153 -0.258995,-14.293 2.322729,-16.04102 12.019749,-29.34884 26.365737,-36.18355 10.150355,-4.83576 21.154279,-5.89007 32.146375,-3.07978 1.956921,0.50032 2.215342,0.51688 2.477263,0.15904 0.160809,-0.21979 2.486913,-4.20952 5.169072,-8.8657 5.30042,-9.20144 6.240408,-10.44231 8.796455,-11.61248 5.064159,-2.31847 11.109869,-0.0884 13.446689,4.95482 0.88579,1.91259 1.12181,5.04262 0.53192,7.05505 -0.20731,0.70685 -2.6597,5.24242 -5.4497,10.07816 -2.79003,4.83576 -5.072761,8.90922 -5.072761,9.05214 0,0.14358 0.261537,0.44288 0.581166,0.66598 1.157975,0.80847 4.669155,4.98232 6.527655,7.75969 9.37428,14.00938 10.64093,31.76087 3.3368,46.76292 -7.41868,15.23742 -22.196802,25.24943 -39.018588,26.43463 -5.175904,0.36447 -11.794118,-0.30483 -16.158523,-1.63515 -0.92432,-0.28164 -1.265475,-0.29709 -1.445799,-0.0663 -0.129885,0.16788 -2.433064,4.1267 -5.118319,8.79733 -2.685254,4.67064 -5.325734,8.99768 -5.867735,9.61552 -0.623908,0.71127 -1.692857,1.47312 -2.913624,2.07637 -2.419069,1.19558 -5.022252,1.4231 -7.378754,0.64501 z"
       id="path4537"
       inkscape:connector-curvature="0"
       inkscape:export-filename="C:\Users\ed.boal\Desktop\peloton\path4537.png"
       inkscape:export-xdpi="1072.4937"
       inkscape:export-ydpi="1072.4937" />
  </g>
</svg>
