<?xml version="1.0" encoding="UTF-8" standalone="no"?>
<svg
   xmlns:dc="http://purl.org/dc/elements/1.1/"
   xmlns:cc="http://creativecommons.org/ns#"
   xmlns:rdf="http://www.w3.org/1999/02/22-rdf-syntax-ns#"
   xmlns:svg="http://www.w3.org/2000/svg"
   xmlns="http://www.w3.org/2000/svg"
   xmlns:xlink="http://www.w3.org/1999/xlink"
   xmlns:sodipodi="http://sodipodi.sourceforge.net/DTD/sodipodi-0.dtd"
   xmlns:inkscape="http://www.inkscape.org/namespaces/inkscape"
   role="img"
   viewBox="0 0 156 46"
   data-test-id="pelotonLogo"
   class="sc-iomxrj hIriqw"
   version="1.1"
   id="svg6"
   sodipodi:docname="logo.svg"
   inkscape:export-filename="C:\Users\ed.boal\Desktop\peloton\logo.png"
   inkscape:export-xdpi="534.26086"
   inkscape:export-ydpi="534.26086"
   inkscape:version="0.92.3 (2405546, 2018-03-11)">
  <metadata
     id="metadata12">
    <rdf:RDF>
      <cc:Work
         rdf:about="">
        <dc:format>image/svg+xml</dc:format>
        <dc:type
           rdf:resource="http://purl.org/dc/dcmitype/StillImage" />
        <dc:title>Peloton Logo</dc:title>
      </cc:Work>
    </rdf:RDF>
  </metadata>
  <defs
     id="defs10">
    <color-profile
       name="Adobe-RGB--1998-"
       xlink:href="C:\WINDOWS\system32\spool\drivers\color\AdobeRGB1998.icc"
       id="color-profile4531" />
  </defs>
  <sodipodi:namedview
     pagecolor="#ffffff"
     bordercolor="#666666"
     borderopacity="1"
     objecttolerance="10"
     gridtolerance="10"
     guidetolerance="10"
     inkscape:pageopacity="0"
     inkscape:pageshadow="2"
     inkscape:window-width="2560"
     inkscape:window-height="1017"
     id="namedview8"
     showgrid="false"
     inkscape:zoom="11.313708"
     inkscape:cx="69.184415"
     inkscape:cy="32.122715"
     inkscape:window-x="1912"
     inkscape:window-y="32"
     inkscape:window-maximized="1"
     inkscape:current-layer="svg6" />
  <title
     id="title2">Peloton Logo</title>
  <path
     d="M27.04 11.065l3.31-5.745A3.515 3.515 0 0 0 29.067.522a3.504 3.504 0 0 0-4.79 1.287l-3.31 5.743c-7.055-2.227-14.952.655-18.804 7.337A16.143 16.143 0 0 0 .908 28.305l6.113-10.606a10.456 10.456 0 0 1 6.387-4.91 10.436 10.436 0 0 1 7.982 1.053c5.023 2.905 6.75 9.362 3.85 14.392-2.9 5.032-9.346 6.762-14.368 3.857l3.506-6.083a3.503 3.503 0 0 0 4.79-1.285 3.516 3.516 0 0 0-1.284-4.797 3.504 3.504 0 0 0-4.79 1.285L1.91 40.614a3.515 3.515 0 0 0 1.283 4.797 3.502 3.502 0 0 0 4.79-1.286l3.311-5.743c7.054 2.227 14.952-.655 18.804-7.338 3.852-6.682 2.395-14.974-3.059-19.98M47.227 22.83c1.567 0 2.565-.705 2.565-2.411 0-1.728-1.044-2.386-2.565-2.386h-2.158v4.796h2.158zm-5.336-7.596h5.426c3.156 0 5.745 1.569 5.745 5.185 0 3.616-2.611 5.21-5.745 5.21H45.07V30.7h-3.18V15.234zm15.84 0h10.217v2.799h-7.039v3.546h6.2v2.729h-6.2v3.595h7.358V30.7H57.73V15.234m15.886 0h3.179v12.669h6.994V30.7H73.616V15.234m26.437 7.732c0-2.887-1.907-5.094-4.722-5.094-2.817 0-4.723 2.207-4.723 5.094 0 2.89 1.906 5.096 4.723 5.096 2.815 0 4.722-2.207 4.722-5.096zm-12.715 0c0-4.57 3.542-7.937 7.993-7.937 4.45 0 7.99 3.367 7.99 7.937 0 4.572-3.54 7.94-7.99 7.94s-7.993-3.368-7.993-7.94zm23.814-4.933h-4.404v-2.8h11.988v2.8h-4.404V30.7h-3.18V18.033m23.704 4.933c0-2.887-1.907-5.094-4.722-5.094-2.817 0-4.724 2.207-4.724 5.094 0 2.89 1.907 5.096 4.724 5.096 2.815 0 4.722-2.207 4.722-5.096zm-12.716 0c0-4.57 3.543-7.937 7.994-7.937 4.45 0 7.992 3.367 7.992 7.937 0 4.572-3.542 7.94-7.992 7.94-4.451 0-7.994-3.368-7.994-7.94zm25.696.546c-.771-.727-1.84-2.115-1.84-2.115s.229 1.706.229 2.82v6.484h-2.975V15.097h.317l7.788 7.325c.75.704 1.816 2.113 1.816 2.113s-.203-1.75-.203-2.818v-6.483h2.974v15.602h-.316l-7.79-7.324"
     id="path4" />
  <path
     style="fill:#df1c2f;fill-opacity:1;stroke:#d40000;stroke-width:0.08838835"
     d="M 3.9393514,45.674161 C 3.2565284,45.448624 2.8932383,45.2088 2.374305,44.641005 1.7526263,43.960789 1.5295106,43.354885 1.5296331,42.347172 1.5297106,41.709595 1.5694948,41.463945 1.7300417,41.109735 2.1310628,40.224975 13.28839,20.966643 13.616015,20.593708 c 0.215146,-0.244899 0.581467,-0.504576 1.011882,-0.717299 0.633235,-0.312962 0.723769,-0.333195 1.474731,-0.329599 1.119703,0.0054 1.670689,0.231894 2.443347,1.004551 0.773746,0.773746 1.001147,1.326074 1.004073,2.438763 0.0019,0.712491 -0.02724,0.857663 -0.279035,1.391299 -0.349356,0.740404 -1.006337,1.413417 -1.684552,1.725657 -0.396684,0.182628 -0.681427,0.24127 -1.308866,0.269556 -0.706711,0.03186 -0.868814,0.0091 -1.365734,-0.191595 -0.310115,-0.125261 -0.569021,-0.21919 -0.575347,-0.20873 -0.32097,0.530657 -3.488409,6.081433 -3.488409,6.113259 0,0.08581 1.186339,0.641971 1.856156,0.87018 2.631354,0.896513 5.497857,0.727198 7.999145,-0.472484 3.645524,-1.748485 5.96418,-5.428515 5.965858,-9.468649 7.14e-4,-1.71671 -0.328528,-3.135381 -1.093797,-4.713075 -1.341132,-2.764906 -3.729567,-4.730052 -6.77241,-5.572174 -1.036114,-0.286751 -3.0774,-0.39279 -4.255318,-0.221054 -2.744307,0.400108 -5.4913185,2.096876 -7.0231513,4.338043 -0.247993,0.362829 -1.8128566,3.026287 -3.4774748,5.918796 C 2.3824947,25.661662 0.99028918,28.060221 0.95332297,28.099284 0.87121496,28.18605 0.47405182,26.782175 0.27901406,25.715766 0.05675994,24.500547 0.01242014,22.053638 0.19038266,20.82461 0.98523637,15.335264 4.3036228,10.781207 9.2129209,8.4423404 12.686442,6.7875001 16.45206,6.42673 20.213634,7.3884022 c 0.669672,0.1712063 0.758102,0.1768696 0.847735,0.05429 0.05504,-0.07527 0.85104,-1.4405238 1.768891,-3.0338961 1.813841,-3.148793 2.135514,-3.57344638 3.01021,-3.9738954 1.732989,-0.79338897 3.801876,-0.0310484 4.601551,1.6955733 0.303138,0.6545232 0.383887,1.7256326 0.182008,2.4143057 -0.07095,0.2420322 -0.910167,1.7939988 -1.864927,3.4488148 -0.954762,1.6548158 -1.735929,3.0487845 -1.735929,3.0977085 0,0.04892 0.08949,0.151428 0.198874,0.227787 0.396266,0.276632 1.59782,1.704971 2.233808,2.655423 3.20794,4.794104 3.641401,10.868764 1.141876,16.002598 -2.538725,5.214347 -7.595901,8.64052 -13.35243,9.046103 -1.771229,0.124794 -4.036027,-0.104392 -5.529557,-0.559564 -0.316294,-0.0964 -0.433054,-0.10151 -0.494764,-0.02167 -0.04443,0.05747 -0.83261,1.412212 -1.7515225,3.010533 -0.9189127,1.59832 -1.8225036,3.079041 -2.00798,3.290491 -0.2135066,0.243406 -0.5793099,0.504097 -0.9970625,0.710561 -0.8278241,0.409133 -1.7186491,0.486959 -2.5250636,0.220599 z"
     id="path4537"
     inkscape:connector-curvature="0"
     inkscape:export-filename="C:\Users\ed.boal\Desktop\peloton\path4537.png"
     inkscape:export-xdpi="1072.4937"
     inkscape:export-ydpi="1072.4937" />
</svg>
